<svg id="Capa_1" enable-background="new 0 0 512 512" height="512" viewBox="0 0 512 512" width="512" xmlns="http://www.w3.org/2000/svg"><g><g><g><g><g><g><g><g><circle cx="256" cy="256" fill="#ffce00" r="256"/></g></g></g></g></g></g></g><path d="m512 256c0-8.766-.441-17.429-1.301-25.968l-101.412-101.412-73.744 103.103-113.789-113.974-3.292-3.108-101.181 280.45 115.906 115.906c7.515.664 15.125 1.003 22.813 1.003 141.385 0 256-114.615 256-256z" fill="#ffa300"/><g><path d="m94.809 254.824v87.043c0 41.024 33.256 74.28 74.28 74.28 41.024 0 74.28-33.256 74.28-74.28v-87.043l-74.279-23.824z" fill="#4a7aff"/></g><g><path d="m169.09 231-.363.116v185.021c.121.001.241.009.362.009 41.024 0 74.28-33.256 74.28-74.28v-87.043z" fill="#0053bf"/></g><g><path d="m243.37 170.133c0-41.024-33.256-74.28-74.28-74.28-41.024 0-74.28 33.256-74.28 74.28v84.69h148.56z" fill="#2fddd0"/></g><g><path d="m243.37 170.133c0-41.024-33.256-74.28-74.28-74.28-.122 0-.241.009-.362.009v158.961h74.643v-84.69z" fill="#11bfae"/></g><g><circle cx="348.5" cy="190.157" fill="#fff" r="86.5"/></g><g><path d="m435 190.157c0-47.696-38.605-86.371-86.273-86.494v172.989c47.668-.124 86.273-38.799 86.273-86.495z" fill="#e9edf5"/></g><g><path d="m262 190.157c0 5.225.463 10.342 1.351 15.312h170.298c.888-4.97 1.351-10.087 1.351-15.312s-.463-10.342-1.351-15.312h-170.298c-.888 4.969-1.351 10.087-1.351 15.312z" fill="#e9edf5"/></g><g><path d="m435 190.157c0-5.225-.463-10.342-1.351-15.312h-84.922v30.624h84.922c.888-4.97 1.351-10.087 1.351-15.312z" fill="#cdd2e1"/></g><g><circle cx="323.974" cy="364.173" fill="#fff" r="57.667"/></g><g><path d="m364.751 404.95c22.521-22.521 22.521-59.034 0-81.554-22.521-22.521-59.033-22.521-81.554 0-.038.038-.072.078-.11.115l81.548 81.548c.039-.037.078-.071.116-.109z" fill="#e9edf5"/></g><g><path d="m283.197 404.95c2.463 2.463 5.094 4.657 7.855 6.581l80.28-80.28c-1.924-2.761-4.118-5.392-6.581-7.855s-5.094-4.657-7.855-6.581l-80.28 80.28c1.924 2.762 4.118 5.392 6.581 7.855z" fill="#e9edf5"/></g><g><path d="m371.333 331.251c-1.924-2.761-4.118-5.392-6.582-7.855-2.463-2.463-5.094-4.657-7.855-6.581l-40.253 40.253 14.437 14.437z" fill="#cdd2e1"/></g></g></svg>